<svg width="24" height="24" viewBox="0 0 24 24" fill="none" xmlns="http://www.w3.org/2000/svg">
<path d="M18.8307 19.0007C19.4496 19.0007 20.0431 19.2465 20.4806 19.6841C20.9182 20.1217 21.1641 20.7151 21.1641 21.334C21.1641 21.9528 20.9182 22.5463 20.4806 22.9839C20.0431 23.4215 19.4496 23.6673 18.8307 23.6673C18.2119 23.6673 17.6184 23.4215 17.1808 22.9839C16.7432 22.5463 16.4974 21.9528 16.4974 21.334C16.4974 20.039 17.5357 19.0007 18.8307 19.0007ZM0.164062 0.333984H3.97906L5.07573 2.66732H22.3307C22.6402 2.66732 22.9369 2.79023 23.1557 3.00903C23.3745 3.22782 23.4974 3.52457 23.4974 3.83398C23.4974 4.03232 23.4391 4.23065 23.3574 4.41732L19.1807 11.9657C18.7841 12.6773 18.0141 13.1673 17.1391 13.1673H8.4474L7.3974 15.069L7.3624 15.209C7.3624 15.2863 7.39313 15.3605 7.44782 15.4152C7.50252 15.4699 7.57671 15.5007 7.65406 15.5007H21.1641V17.834H7.16406C6.54522 17.834 5.95173 17.5882 5.51415 17.1506C5.07656 16.713 4.83073 16.1195 4.83073 15.5007C4.83073 15.0923 4.93573 14.7073 5.11073 14.3807L6.6974 11.5223L2.4974 2.66732H0.164062V0.333984ZM7.16406 19.0007C7.7829 19.0007 8.37639 19.2465 8.81398 19.6841C9.25156 20.1217 9.4974 20.7151 9.4974 21.334C9.4974 21.9528 9.25156 22.5463 8.81398 22.9839C8.37639 23.4215 7.7829 23.6673 7.16406 23.6673C6.54522 23.6673 5.95173 23.4215 5.51415 22.9839C5.07656 22.5463 4.83073 21.9528 4.83073 21.334C4.83073 20.039 5.86906 19.0007 7.16406 19.0007ZM17.6641 10.834L20.9074 5.00065H6.16073L8.91406 10.834H17.6641Z" fill="#1E1E1E"/>
</svg>
