<svg width="26" height="26" viewBox="0 0 26 26" fill="none" xmlns="http://www.w3.org/2000/svg">
<path d="M22.3095 0.640625C21.5638 0.641719 20.1976 1.17859 19.7005 1.73438H2.73133C0.981328 1.73438 0.981328 5.23438 2.73133 5.23438H19.7009C20.1979 5.79 21.564 6.32692 22.3095 6.32812C23.2459 6.32676 24.1108 5.60789 24.579 4.79688H22.4189L21.2158 3.48438L22.4189 2.17188H24.5801C24.1117 1.36059 23.2462 0.641609 22.3095 0.640625ZM3.60633 2.60938C4.0896 2.60938 4.48133 3.0011 4.48133 3.48438C4.48133 3.96765 4.0896 4.35938 3.60633 4.35938C3.12305 4.35938 2.73133 3.96765 2.73133 3.48438C2.73133 3.0011 3.12311 2.60938 3.60633 2.60938ZM7.75 9.00781C7.3125 9.00781 6.99367 9.22864 6.64717 9.48977C6.30067 9.75085 5.93733 10.0883 5.55118 10.4561C4.79912 11.1723 3.95961 12.0032 3.16637 12.5461L5.64956 12.6082C6.26042 11.4626 6.64909 10.3996 7.75 9.99219H11.6328V12.7578L12.6172 12.7825V9.99219H13.875C14.5039 9.99219 15.5675 10.5655 16.63 11.4155C17.2033 11.8742 17.7819 12.4005 18.3317 12.9254L21.0448 12.9932L23.7644 9.8203L23.0169 9.1797L19.7774 12.9591C19.0144 12.203 18.1394 11.3624 17.245 10.6469C16.1199 9.74702 14.9961 9.00781 13.875 9.00781H7.75ZM1.62369 13.4924C1.35052 13.4928 1.02027 13.6444 0.769852 13.8949C0.519055 14.1456 0.367188 14.4766 0.367188 14.75C0.367188 15.4609 0.765094 16.5142 1.2768 17.3329C1.51497 17.7141 1.77572 18.0469 2.00852 18.2797C2.00847 18.2697 2.00781 18.26 2.00781 18.25C2.00781 16.5342 3.40923 15.1328 5.125 15.1328C6.84077 15.1328 8.24219 16.5342 8.24219 18.25C8.24219 18.3796 8.23327 18.5072 8.21774 18.6328H18.6573C18.6413 18.5058 18.6331 18.378 18.6328 18.25C18.6328 16.5342 20.0342 15.1328 21.75 15.1328C23.4658 15.1328 24.8672 16.5342 24.8672 18.25C24.8672 18.3796 24.8583 18.5072 24.8427 18.6328H25.3564L25.6317 16.154C25.6259 15.4528 25.2885 14.9517 24.8331 14.5874C24.3737 14.2199 23.7734 14.0391 23.5 14.0391H23.4938L1.62369 13.4924ZM5.125 16.1172C3.94123 16.1172 2.99219 17.0662 2.99219 18.25C2.99219 19.4338 3.94123 20.3828 5.125 20.3828C6.30871 20.3828 7.25781 19.4338 7.25781 18.25C7.25781 17.0662 6.30871 16.1172 5.125 16.1172ZM21.75 16.1172C20.5662 16.1172 19.6172 17.0662 19.6172 18.25C19.6172 19.4338 20.5662 20.3828 21.75 20.3828C22.9337 20.3828 23.8828 19.4338 23.8828 18.25C23.8828 17.0662 22.9337 16.1172 21.75 16.1172ZM9.99219 19.6172V20.3828H16.0078V19.6172H9.99219ZM12.6172 21.3672V23.8828H13.3828V21.3672H12.6172ZM10.6792 24.8672L10.2964 25.6328H15.7036L15.3208 24.8672H10.6792Z" fill="#1E1E1E"/>
</svg>
